Point(0) = {-0.000000006490000, -0.000000003870000, -0.000000125000000, 0.000000002000000};
Point(1) = {0.000000010360000, -0.000000003870000, -0.000000125000000, 0.000000002000000};
Point(2) = {0.000000010360000, 0.000000006130000, -0.000000125000000, 0.000000002000000};
Point(3) = {-0.000000006490000, 0.000000006130000, -0.000000125000000, 0.000000002000000};
Point(4) = {-0.000000006490000, -0.000000003870000, 0.000000025000000, 0.000000002000000};
Point(5) = {0.000000010360000, -0.000000003870000, 0.000000025000000, 0.000000002000000};
Point(6) = {0.000000010360000, 0.000000006130000, 0.000000025000000, 0.000000002000000};
Point(7) = {-0.000000006490000, 0.000000006130000, 0.000000025000000, 0.000000002000000};
Line(0) = {0, 1};
Line(1) = {1, 2};
Line(2) = {2, 3};
Line(3) = {3, 0};
Line(4) = {4, 5};
Line(5) = {5, 6};
Line(6) = {6, 7};
Line(7) = {7, 4};
Line(8) = {4, 0};
Line(9) = {5, 1};
Line(10) = {6, 2};
Line(11) = {7, 3};
Line Loop(12) = {0,1,2,3};
Plane Surface(13) = {12};
Line Loop(14) = {4,5,6,7};
Plane Surface(15) = {14};
Line Loop(16) = {8,-3,-11,7};
Plane Surface(17) = {16};
Line Loop(18) = {9,1,-10,-5};
Plane Surface(19) = {18};
Line Loop(20) = {8,0,-9,-4};
Plane Surface(21) = {20};
Line Loop(22) = {11,-2,-10,6};
Plane Surface(23) = {22};
Surface Loop(24) = {23,21,19,17,15,13};
Volume(25) = {24};
Physical Volume(0) = {25};
Point(8) = {-0.000000006483510, -0.000000003866130, 0.000000000000000, 0.000000001000000};
Point(9) = {0.000000010349640, -0.000000003866130, 0.000000000000000, 0.000000001000000};
Point(10) = {0.000000010349640, 0.000000006123870, 0.000000000000000, 0.000000001000000};
Point(11) = {-0.000000006483510, 0.000000006123870, 0.000000000000000, 0.000000001000000};
Line(26) = {8, 9};
Line(27) = {9, 10};
Line(28) = {10, 11};
Line(29) = {11, 8};
Line Loop(30) = {26,27,28,29};
Plane Surface(31) = {30};
Surface{31} In Volume{25};
Field[1] = Box;
Field[1].VIn = 0.000000000500000;
Field[1].VOut = 0.000000002000000;
Field[1].XMin = -0.000000006554900;
Field[1].XMax = 0.000000010463600;
Field[1].YMin = -0.000000003908700;
Field[1].YMax = 0.000000006191300;
Field[1].ZMin = -0.000000002000000;
Field[1].ZMax = 0.000000002000000;
Field[2] = Min;
Field[2].FieldsList = {1};
Point(12) = {0.000000000250000, 0.000000000130000, -0.000000100000000, 0.000000002000000};
Point(13) = {0.000000001020000, 0.000000000130000, -0.000000100000000, 0.000000002000000};
Point(14) = {0.000000001020000, 0.000000001240000, -0.000000100000000, 0.000000002000000};
Point(15) = {0.000000000250000, 0.000000001240000, -0.000000100000000, 0.000000002000000};
Point(16) = {0.000000000250000, 0.000000000130000, -0.000000090000000, 0.000000002000000};
Point(17) = {0.000000001020000, 0.000000000130000, -0.000000090000000, 0.000000002000000};
Point(18) = {0.000000001020000, 0.000000001240000, -0.000000090000000, 0.000000002000000};
Point(19) = {0.000000000250000, 0.000000001240000, -0.000000090000000, 0.000000002000000};
Line(32) = {12, 13};
Line(33) = {13, 14};
Line(34) = {14, 15};
Line(35) = {15, 12};
Line(36) = {16, 17};
Line(37) = {17, 18};
Line(38) = {18, 19};
Line(39) = {19, 16};
Line(40) = {16, 12};
Line(41) = {17, 13};
Line(42) = {18, 14};
Line(43) = {19, 15};
Line Loop(44) = {32,33,34,35};
Plane Surface(45) = {44};
Surface{45} In Volume{25};
Line Loop(46) = {36,37,38,39};
Plane Surface(47) = {46};
Surface{47} In Volume{25};
Line Loop(48) = {40,-35,-43,39};
Plane Surface(49) = {48};
Surface{49} In Volume{25};
Line Loop(50) = {41,33,-42,-37};
Plane Surface(51) = {50};
Surface{51} In Volume{25};
Line Loop(52) = {40,32,-41,-36};
Plane Surface(53) = {52};
Surface{53} In Volume{25};
Line Loop(54) = {43,-34,-42,38};
Plane Surface(55) = {54};
Surface{55} In Volume{25};
Field[3] = Box;
Field[3].VIn = 0.000000002000000;
Field[3].VOut = 0.000000000000000;
Field[3].XMin = 0.000000000250000;
Field[3].XMax = 0.000000001020000;
Field[3].YMin = 0.000000000130000;
Field[3].YMax = 0.000000001240000;
Field[3].ZMin = -0.000000100000000;
Field[3].ZMax = -0.000000090000000;
Field[4] = Max;
Field[4].FieldsList = {2,3};
Field[5] = Box;
Field[5].VIn = 0.000000000500000;
Field[5].VOut = 0.000000002000000;
Field[5].XMin = 0.000000000275000;
Field[5].XMax = 0.000000001122000;
Field[5].YMin = 0.000000000143000;
Field[5].YMax = 0.000000001364000;
Field[5].ZMin = -0.000000110000000;
Field[5].ZMax = -0.000000099000000;
Field[6] = Min;
Field[6].FieldsList = {4,5};
Point(20) = {0.000000002910000, 0.000000000310000, -0.000000100000000, 0.000000002000000};
Point(21) = {0.000000003620000, 0.000000000310000, -0.000000100000000, 0.000000002000000};
Point(22) = {0.000000003620000, 0.000000002130000, -0.000000100000000, 0.000000002000000};
Point(23) = {0.000000002910000, 0.000000002130000, -0.000000100000000, 0.000000002000000};
Point(24) = {0.000000002910000, 0.000000000310000, -0.000000090000000, 0.000000002000000};
Point(25) = {0.000000003620000, 0.000000000310000, -0.000000090000000, 0.000000002000000};
Point(26) = {0.000000003620000, 0.000000002130000, -0.000000090000000, 0.000000002000000};
Point(27) = {0.000000002910000, 0.000000002130000, -0.000000090000000, 0.000000002000000};
Line(56) = {20, 21};
Line(57) = {21, 22};
Line(58) = {22, 23};
Line(59) = {23, 20};
Line(60) = {24, 25};
Line(61) = {25, 26};
Line(62) = {26, 27};
Line(63) = {27, 24};
Line(64) = {24, 20};
Line(65) = {25, 21};
Line(66) = {26, 22};
Line(67) = {27, 23};
Line Loop(68) = {56,57,58,59};
Plane Surface(69) = {68};
Surface{69} In Volume{25};
Line Loop(70) = {60,61,62,63};
Plane Surface(71) = {70};
Surface{71} In Volume{25};
Line Loop(72) = {64,-59,-67,63};
Plane Surface(73) = {72};
Surface{73} In Volume{25};
Line Loop(74) = {65,57,-66,-61};
Plane Surface(75) = {74};
Surface{75} In Volume{25};
Line Loop(76) = {64,56,-65,-60};
Plane Surface(77) = {76};
Surface{77} In Volume{25};
Line Loop(78) = {67,-58,-66,62};
Plane Surface(79) = {78};
Surface{79} In Volume{25};
Field[7] = Box;
Field[7].VIn = 0.000000002000000;
Field[7].VOut = 0.000000000000000;
Field[7].XMin = 0.000000002910000;
Field[7].XMax = 0.000000003620000;
Field[7].YMin = 0.000000000310000;
Field[7].YMax = 0.000000002130000;
Field[7].ZMin = -0.000000100000000;
Field[7].ZMax = -0.000000090000000;
Field[8] = Max;
Field[8].FieldsList = {6,7};
Field[9] = Box;
Field[9].VIn = 0.000000000500000;
Field[9].VOut = 0.000000002000000;
Field[9].XMin = 0.000000003201000;
Field[9].XMax = 0.000000003982000;
Field[9].YMin = 0.000000000341000;
Field[9].YMax = 0.000000002343000;
Field[9].ZMin = -0.000000110000000;
Field[9].ZMax = -0.000000099000000;
Field[10] = Min;
Field[10].FieldsList = {8,9};
Field[11] = Mean;
Field[11].IField = 10;
Field[11].Delta = 0.000000002000000;
Background Field = 11;
